<svg width="22" height="22" viewBox="0 0 26 26" fill="none" xmlns="http://www.w3.org/2000/svg">
<path d="M18.8089 2.08984V4.17973M6.26953 2.08984V4.17973" stroke="#666666" stroke-width="1.5" stroke-linecap="round" stroke-linejoin="round"/>
<path d="M2.6123 12.7934C2.6123 8.2403 2.6123 5.96372 3.9207 4.54924C5.22909 3.13477 7.33492 3.13477 11.5466 3.13477H13.532C17.7436 3.13477 19.8495 3.13477 21.1579 4.54924C22.4662 5.96372 22.4662 8.2403 22.4662 12.7934V13.3301C22.4662 17.8832 22.4662 20.1597 21.1579 21.5743C19.8495 22.9887 17.7436 22.9887 13.532 22.9887H11.5466C7.33492 22.9887 5.22909 22.9887 3.9207 21.5743C2.6123 20.1597 2.6123 17.8832 2.6123 13.3301V12.7934Z" stroke="#666666" stroke-width="1.5" stroke-linecap="round" stroke-linejoin="round"/>
<path d="M3.13477 8.35938H21.9438" stroke="#666666" stroke-width="1.5" stroke-linecap="round" stroke-linejoin="round"/>
</svg>
