<svg width="24" height="24" viewBox="0 0 24 24" fill="none" xmlns="http://www.w3.org/2000/svg">
<path d="M11.0029 2H10.0062C6.72443 2 5.08355 2 3.92039 2.81382C3.49006 3.1149 3.11577 3.48891 2.81445 3.91891C2 5.08116 2 6.72077 2 10C2 13.2792 2 14.9188 2.81445 16.0811C3.11577 16.5111 3.49006 16.8851 3.92039 17.1862C5.08355 18 6.72443 18 10.0062 18H14.0093C17.2911 18 18.932 18 20.0951 17.1862C20.5254 16.8851 20.8997 16.5111 21.2011 16.0811C21.8156 15.2042 21.9663 14.0941 22 13" stroke="#6D4DFF" stroke-width="1.5" stroke-linecap="round"/>
<path d="M18 9.71428V11M18 9.71428C16.8432 9.71428 15.8241 9.14608 15.2263 8.28331M18 9.71428C19.1568 9.71428 20.1759 9.14608 20.7737 8.28331M15.2263 8.28331L14.0004 9.07143M15.2263 8.28331C14.8728 7.77304 14.6667 7.15973 14.6667 6.5C14.6667 5.84035 14.8727 5.22711 15.2262 4.71688M20.7737 8.28331L21.9996 9.07143M20.7737 8.28331C21.1272 7.77304 21.3333 7.15973 21.3333 6.5C21.3333 5.84035 21.1273 5.22711 20.7738 4.71688M18 3.28571C19.1569 3.28571 20.1761 3.854 20.7738 4.71688M18 3.28571C16.8431 3.28571 15.8239 3.854 15.2262 4.71688M18 3.28571V2M20.7738 4.71688L22 3.92857M15.2262 4.71688L14 3.92857" stroke="#6D4DFF" stroke-width="1.5" stroke-linecap="round"/>
<path d="M11 15H13" stroke="#6D4DFF" stroke-width="1.5" stroke-linecap="round" stroke-linejoin="round"/>
<path d="M12 18V22" stroke="#6D4DFF" stroke-width="1.5"/>
<path d="M8 22H16" stroke="#6D4DFF" stroke-width="1.5" stroke-linecap="round"/>
</svg>
